<svg xmlns="http://www.w3.org/2000/svg" id="Layer_1" data-name="Layer 1" viewBox="0 0 142.8 142.8"><defs><style>.cls-1{fill:#6bb344}</style></defs><title>logo-web-services</title><rect width="33.06" height="3.87" x="54.87" y="95.77" class="cls-1"/><rect width="33.06" height="3.87" x="54.87" y="80.28" class="cls-1"/><path d="M134.24,80a8.57,8.57,0,1,1,8.56-8.57A71.4,71.4,0,1,0,0,71.4,8.57,8.57,0,1,1,8.57,80,8.57,8.57,0,0,1,0,71.4a71.4,71.4,0,1,0,142.8,0A8.57,8.57,0,0,1,134.24,80ZM28.82,73.47h-6.2a2.07,2.07,0,0,1,0-4.14h6.2a2.07,2.07,0,1,1,0,4.14Zm14.46,0h-6.2a2.07,2.07,0,0,1,0-4.14h6.2a2.07,2.07,0,0,1,0,4.14ZM94.39,106.1h-46V36.7h46Zm11.9-32.63h-6.2a2.07,2.07,0,0,1,0-4.14h6.2a2.07,2.07,0,0,1,0,4.14Zm14.46,0h-6.2a2.07,2.07,0,0,1,0-4.14h6.2a2.07,2.07,0,0,1,0,4.14Z" class="cls-1"/><rect width="33.06" height="3.87" x="54.87" y="88.03" class="cls-1"/><polygon points="82.83 58.55 79.81 69.84 84.08 69.84 87.11 58.55 84.08 47.25 79.81 47.25 82.83 58.55" class="cls-1"/><polygon points="60.25 58.55 63.28 47.25 59 47.25 55.98 58.55 59 69.84 63.28 69.84 60.25 58.55" class="cls-1"/><polygon points="66.38 69.84 70.66 69.84 76.71 47.25 72.43 47.25 66.38 69.84" class="cls-1"/></svg>